<svg width="15" height="14" viewBox="0 0 15 14" fill="none" xmlns="http://www.w3.org/2000/svg">
<g clip-path="url(#clip0_97_10603)">
<path d="M4.6875 1.89076C5.20605 1.89076 5.625 1.46829 5.625 0.945378C5.625 0.422466 5.20605 0 4.6875 0H2.8125C1.25977 0 0 1.27035 0 2.83613V10.3992C0 11.9649 1.25977 13.2353 2.8125 13.2353H4.6875C5.20605 13.2353 5.625 12.8128 5.625 12.2899C5.625 11.767 5.20605 11.3445 4.6875 11.3445H2.8125C2.29395 11.3445 1.875 10.9221 1.875 10.3992V2.83613C1.875 2.31322 2.29395 1.89076 2.8125 1.89076H4.6875ZM14.7803 7.1317C14.9209 6.99875 15 6.81263 15 6.61765C15 6.42266 14.9209 6.23654 14.7803 6.1036L10.5615 2.08574C10.3564 1.89076 10.0576 1.83758 9.7998 1.94984C9.54199 2.06211 9.375 2.31913 9.375 2.59979V4.72689H5.625C5.10645 4.72689 4.6875 5.14936 4.6875 5.67227V7.56303C4.6875 8.08594 5.10645 8.5084 5.625 8.5084H9.375V10.6355C9.375 10.9191 9.54199 11.1732 9.7998 11.2855C10.0576 11.3977 10.3564 11.3445 10.5615 11.1496L14.7803 7.1317Z" fill="#00A1E4"/>
</g>
<defs>
<clipPath id="clip0_97_10603">
<rect width="15" height="14" fill="white"/>
</clipPath>
</defs>
</svg>
