<svg width="25" height="24" viewBox="0 0 25 24" fill="none" xmlns="http://www.w3.org/2000/svg">
<path d="M12.2545 0C5.62548 0 0.254517 5.37097 0.254517 12C0.254517 18.629 5.62548 24 12.2545 24C18.8835 24 24.2545 18.629 24.2545 12C24.2545 5.37097 18.8835 0 12.2545 0ZM18.1384 15.15C18.3658 15.3774 18.3658 15.7452 18.1384 15.9726L16.2223 17.8839C15.9948 18.1113 15.6271 18.1113 15.3997 17.8839L12.2545 14.7097L9.10452 17.8839C8.8771 18.1113 8.50935 18.1113 8.28194 17.8839L6.37065 15.9677C6.14323 15.7403 6.14323 15.3726 6.37065 15.1452L9.54484 12L6.37065 8.85C6.14323 8.62258 6.14323 8.25484 6.37065 8.02742L8.28677 6.11129C8.51419 5.88387 8.88194 5.88387 9.10935 6.11129L12.2545 9.29032L15.4045 6.11613C15.6319 5.88871 15.9997 5.88871 16.2271 6.11613L18.1432 8.03226C18.3706 8.25968 18.3706 8.62742 18.1432 8.85484L14.9642 12L18.1384 15.15Z" fill="#C4C4C4"/>
</svg>
