<svg width="12" height="15" viewBox="0 0 12 15" fill="none" xmlns="http://www.w3.org/2000/svg">
<path d="M1.875 0C0.84082 0 0 0.84082 0 1.875V13.125C0 14.1592 0.84082 15 1.875 15H9.375C10.4092 15 11.25 14.1592 11.25 13.125V1.875C11.25 0.84082 10.4092 0 9.375 0H1.875ZM4.6875 9.375H6.5625C7.85742 9.375 8.90625 10.4238 8.90625 11.7187C8.90625 11.9766 8.69531 12.1875 8.4375 12.1875H2.8125C2.55469 12.1875 2.34375 11.9766 2.34375 11.7187C2.34375 10.4238 3.39258 9.375 4.6875 9.375ZM7.5 6.5625C7.5 7.59668 6.65918 8.4375 5.625 8.4375C4.59082 8.4375 3.75 7.59668 3.75 6.5625C3.75 5.52832 4.59082 4.6875 5.625 4.6875C6.65918 4.6875 7.5 5.52832 7.5 6.5625ZM4.21875 1.875H7.03125C7.28906 1.875 7.5 2.08594 7.5 2.34375C7.5 2.60156 7.28906 2.8125 7.03125 2.8125H4.21875C3.96094 2.8125 3.75 2.60156 3.75 2.34375C3.75 2.08594 3.96094 1.875 4.21875 1.875Z" fill="#00A1E4"/>
</svg>
