<svg width="15" height="14" viewBox="0 0 15 14" fill="none" xmlns="http://www.w3.org/2000/svg">
<path d="M10.4798 0.513214L9.08127 1.83799L12.8375 5.39627L14.236 4.07149C14.9584 3.38721 14.9584 2.27867 14.236 1.59438L13.0976 0.513214C12.3752 -0.171071 11.205 -0.171071 10.4826 0.513214H10.4798ZM8.42826 2.45658L1.693 8.83959C1.3925 9.12425 1.17291 9.47735 1.05155 9.86328L0.028694 13.1561C-0.0435417 13.3887 0.0229152 13.6378 0.20206 13.8075C0.381204 13.9772 0.644142 14.0402 0.886854 13.9745L4.36284 13.0055C4.77025 12.8906 5.14298 12.6825 5.44348 12.3979L12.1845 6.01486L8.42826 2.45658Z" fill="#F47735"/>
</svg>
