<svg width="17" height="14" viewBox="0 0 17 14" fill="none" xmlns="http://www.w3.org/2000/svg">
<path d="M16.3291 6.98633C16.3291 7.47852 15.9037 7.86406 15.4216 7.86406H14.5141L14.5339 12.2445C14.5339 12.3184 14.5283 12.3922 14.5198 12.466V12.9062C14.5198 13.5105 14.0121 14 13.3854 14H12.9317C12.9005 14 12.8693 14 12.8381 13.9973C12.7984 14 12.7587 14 12.719 14H11.7973H11.1167C10.49 14 9.98233 13.5105 9.98233 12.9062V12.25V10.5C9.98233 10.016 9.5768 9.625 9.07485 9.625H7.25988C6.75793 9.625 6.35239 10.016 6.35239 10.5V12.25V12.9062C6.35239 13.5105 5.84477 14 5.21804 14H4.53742H3.63278C3.59024 14 3.5477 13.9973 3.50516 13.9945C3.47113 13.9973 3.4371 14 3.40307 14H2.94933C2.32259 14 1.81497 13.5105 1.81497 12.9062V9.84375C1.81497 9.81914 1.81497 9.7918 1.81781 9.76719V7.86406H0.907485C0.397025 7.86406 0 7.48125 0 6.98633C0 6.74023 0.0850767 6.52148 0.283589 6.33008L7.55481 0.21875C7.75332 0.0273438 7.98019 0 8.17871 0C8.37722 0 8.60409 0.0546875 8.77424 0.191406L16.0171 6.33008C16.244 6.52148 16.3574 6.74023 16.3291 6.98633Z" fill="white"/>
</svg>
