<svg width="15" height="14" viewBox="0 0 15 14" fill="none" xmlns="http://www.w3.org/2000/svg">
<g clip-path="url(#clip0_96_10592)">
<path d="M6.35804 0.141518C6.7655 -0.0471727 7.23586 -0.0471727 7.64332 0.141518L13.6213 2.90351C13.8537 3.01016 14.0014 3.2426 14.0014 3.49966C14.0014 3.75671 13.8537 3.98916 13.6213 4.09581L7.64332 6.8578C7.23586 7.04649 6.7655 7.04649 6.35804 6.8578L0.380115 4.09581C0.147671 3.98642 0 3.75398 0 3.49966C0 3.24534 0.147671 3.01016 0.380115 2.90351L6.35804 0.141518ZM12.1664 5.73113L13.6213 6.40385C13.8537 6.5105 14.0014 6.74294 14.0014 7C14.0014 7.25706 13.8537 7.4895 13.6213 7.59615L7.64332 10.3581C7.23586 10.5468 6.7655 10.5468 6.35804 10.3581L0.380115 7.59615C0.147671 7.48677 0 7.25432 0 7C0 6.74568 0.147671 6.5105 0.380115 6.40385L1.83494 5.73113L5.9916 7.65084C6.63151 7.94619 7.36986 7.94619 8.00977 7.65084L12.1664 5.73113ZM8.00977 11.1512L12.1664 9.23147L13.6213 9.90419C13.8537 10.0108 14.0014 10.2433 14.0014 10.5003C14.0014 10.7574 13.8537 10.9898 13.6213 11.0965L7.64332 13.8585C7.23586 14.0472 6.7655 14.0472 6.35804 13.8585L0.380115 11.0965C0.147671 10.9871 0 10.7547 0 10.5003C0 10.246 0.147671 10.0108 0.380115 9.90419L1.83494 9.23147L5.9916 11.1512C6.63151 11.4465 7.36986 11.4465 8.00977 11.1512Z" fill="#00A1E4"/>
</g>
<defs>
<clipPath id="clip0_96_10592">
<rect width="15" height="14" fill="white"/>
</clipPath>
</defs>
</svg>
