<svg width="11" height="12" viewBox="0 0 11 12" fill="none" xmlns="http://www.w3.org/2000/svg">
<path d="M5.5 6C7.23594 6 8.64286 4.65703 8.64286 3C8.64286 1.34297 7.23594 0 5.5 0C3.76406 0 2.35714 1.34297 2.35714 3C2.35714 4.65703 3.76406 6 5.5 6ZM7.7 6.75H7.28996C6.74487 6.98906 6.13839 7.125 5.5 7.125C4.86161 7.125 4.25759 6.98906 3.71004 6.75H3.3C1.47812 6.75 0 8.16094 0 9.9V10.875C0 11.4961 0.527902 12 1.17857 12H9.82143C10.4721 12 11 11.4961 11 10.875V9.9C11 8.16094 9.52187 6.75 7.7 6.75Z" fill="#989898" fill-opacity="0.54"/>
</svg>
