<svg width="12" height="10" viewBox="0 0 12 10" fill="none" xmlns="http://www.w3.org/2000/svg">
<path d="M11.3996 0.821705L0.599333 0.821704C0.489985 0.822046 0.382802 0.852205 0.289319 0.908933C0.195836 0.965661 0.119594 1.04681 0.0688007 1.14364C0.0180071 1.24048 -0.00541518 1.34933 0.00105454 1.45849C0.00752426 1.56765 0.0436418 1.67297 0.105519 1.76313L5.50567 9.56335C5.72948 9.88676 6.26829 9.88676 6.4927 9.56335L11.8929 1.76313C11.9554 1.67316 11.992 1.56778 11.9988 1.45845C12.0057 1.34911 11.9824 1.23999 11.9315 1.14295C11.8807 1.04591 11.8042 0.964657 11.7105 0.908021C11.6167 0.851385 11.5092 0.821532 11.3996 0.821705Z" fill="#929292"/>
</svg>
