<svg width="11" height="14" viewBox="0 0 11 14" fill="none" xmlns="http://www.w3.org/2000/svg">
<path d="M1.75 0C0.784766 0 0 0.784766 0 1.75V12.25C0 13.2152 0.784766 14 1.75 14H8.75C9.71523 14 10.5 13.2152 10.5 12.25V1.75C10.5 0.784766 9.71523 0 8.75 0H1.75ZM4.375 8.75H6.125C7.33359 8.75 8.3125 9.72891 8.3125 10.9375C8.3125 11.1781 8.11563 11.375 7.875 11.375H2.625C2.38438 11.375 2.1875 11.1781 2.1875 10.9375C2.1875 9.72891 3.16641 8.75 4.375 8.75ZM7 6.125C7 7.09023 6.21523 7.875 5.25 7.875C4.28477 7.875 3.5 7.09023 3.5 6.125C3.5 5.15977 4.28477 4.375 5.25 4.375C6.21523 4.375 7 5.15977 7 6.125ZM3.9375 1.75H6.5625C6.80312 1.75 7 1.94687 7 2.1875C7 2.42812 6.80312 2.625 6.5625 2.625H3.9375C3.69688 2.625 3.5 2.42812 3.5 2.1875C3.5 1.94687 3.69688 1.75 3.9375 1.75Z" fill="white"/>
</svg>
