<svg width="91" height="91" viewBox="0 0 91 91" fill="none" xmlns="http://www.w3.org/2000/svg">
<g clip-path="url(#clip0_109_10594)">
<path d="M45.5 91C70.6316 91 91 70.6316 91 45.5C91 20.3684 70.6316 0 45.5 0C20.3684 0 0 20.3684 0 45.5C0 70.6316 20.3684 91 45.5 91ZM45.5 22.75C47.8639 22.75 49.7656 24.6518 49.7656 27.0156V46.9219C49.7656 49.2857 47.8639 51.1875 45.5 51.1875C43.1361 51.1875 41.2344 49.2857 41.2344 46.9219V27.0156C41.2344 24.6518 43.1361 22.75 45.5 22.75ZM51.1875 62.5625C51.1875 65.7084 48.6459 68.25 45.5 68.25C42.3541 68.25 39.8125 65.7084 39.8125 62.5625C39.8125 59.4166 42.3541 56.875 45.5 56.875C48.6459 56.875 51.1875 59.4166 51.1875 62.5625Z" fill="#00A1E4"/>
</g>
<defs>
<clipPath id="clip0_109_10594">
<rect width="91" height="91" fill="white"/>
</clipPath>
</defs>
</svg>
