<svg width="44" height="44" viewBox="0 0 44 44" fill="none" xmlns="http://www.w3.org/2000/svg">
<g clip-path="url(#clip0_102_10593)">
<path d="M21.7678 43.2856C33.6493 43.2856 43.2812 33.6537 43.2812 21.7722C43.2812 9.89067 33.6493 0.258789 21.7678 0.258789C9.88627 0.258789 0.254395 9.89067 0.254395 21.7722C0.254395 33.6537 9.88627 43.2856 21.7678 43.2856Z" fill="#00A1E4"/>
<path d="M17.5807 32.3792L8.03088 23.2318C7.45715 22.6822 7.45715 21.7912 8.03088 21.2416L10.1086 19.2513C10.6823 18.7017 11.6126 18.7017 12.1864 19.2513L18.6196 25.4134L32.3989 12.2149C32.9726 11.6653 33.9029 11.6653 34.4767 12.2149L36.5544 14.2051C37.1281 14.7547 37.1281 15.6457 36.5544 16.1953L19.6585 32.3792C19.0847 32.9288 18.1544 32.9288 17.5807 32.3792Z" fill="white"/>
</g>
<defs>
<clipPath id="clip0_102_10593">
<rect width="44" height="44" fill="white"/>
</clipPath>
</defs>
</svg>
