<svg width="17" height="14" viewBox="0 0 17 14" fill="none" xmlns="http://www.w3.org/2000/svg">
<path d="M4.93097 0.200405C5.25182 0.488842 5.27775 0.978212 4.98931 1.29906L2.65589 3.89175C2.51329 4.05055 2.31236 4.14454 2.09846 4.14778C1.88456 4.15102 1.68039 4.07 1.52807 3.92092L0.228481 2.62457C-0.0761603 2.31993 -0.0761603 1.82732 0.228481 1.52592C0.533122 1.22452 1.02573 1.22128 1.32713 1.52592L2.04336 2.24215L3.82908 0.25874C4.11752 -0.0621051 4.60689 -0.088032 4.92773 0.200405H4.93097ZM4.93097 5.38579C5.25182 5.67422 5.27775 6.16359 4.98931 6.48444L2.65589 9.07713C2.51329 9.23593 2.31236 9.32992 2.09846 9.33316C1.88456 9.3364 1.68039 9.25538 1.52807 9.1063L0.228481 7.80995C-0.0761603 7.50531 -0.0761603 7.0127 0.228481 6.7113C0.533122 6.4099 1.02573 6.40666 1.32713 6.7113L2.04336 7.42753L3.82908 5.44412C4.11752 5.12328 4.60689 5.09735 4.92773 5.38579H4.93097ZM7.26115 2.07362C7.26115 1.49999 7.7246 1.03655 8.29823 1.03655H15.5578C16.1314 1.03655 16.5948 1.49999 16.5948 2.07362C16.5948 2.64726 16.1314 3.1107 15.5578 3.1107H8.29823C7.7246 3.1107 7.26115 2.64726 7.26115 2.07362ZM7.26115 7.25901C7.26115 6.68537 7.7246 6.22193 8.29823 6.22193H15.5578C16.1314 6.22193 16.5948 6.68537 16.5948 7.25901C16.5948 7.83264 16.1314 8.29608 15.5578 8.29608H8.29823C7.7246 8.29608 7.26115 7.83264 7.26115 7.25901ZM5.187 12.4444C5.187 11.8708 5.65044 11.4073 6.22408 11.4073H15.5578C16.1314 11.4073 16.5948 11.8708 16.5948 12.4444C16.5948 13.018 16.1314 13.4815 15.5578 13.4815H6.22408C5.65044 13.4815 5.187 13.018 5.187 12.4444ZM1.55723 14C0.698406 14 0.00162042 13.3032 0.00162042 12.4444C0.00162042 11.5856 0.698406 10.8888 1.55723 10.8888C2.41606 10.8888 3.11285 11.5856 3.11285 12.4444C3.11285 13.3032 2.41606 14 1.55723 14Z" fill="#F47735"/>
</svg>
