<svg width="41" height="41" viewBox="0 0 41 41" fill="none" xmlns="http://www.w3.org/2000/svg">
<path d="M20.3137 40.6274C31.5326 40.6274 40.6274 31.5326 40.6274 20.3137C40.6274 9.09475 31.5326 0 20.3137 0C9.09475 0 0 9.09475 0 20.3137C0 31.5326 9.09475 40.6274 20.3137 40.6274Z" fill="#00A1E4"/>
<path d="M18.4376 26.9397C18.3056 26.9397 18.1256 26.9337 17.8976 26.9217C17.6696 26.9097 17.4356 26.8797 17.1956 26.8317C16.9556 26.7837 16.7516 26.7117 16.5836 26.6157C16.4276 26.5077 16.3496 26.3697 16.3496 26.2017C16.3496 26.1297 16.3676 25.9797 16.4036 25.7517C16.4516 25.5117 16.5176 25.2897 16.6016 25.0857C16.6976 24.8817 16.8236 24.7737 16.9796 24.7617C17.0636 24.7617 17.1836 24.7917 17.3396 24.8517C17.5076 24.8997 17.7356 24.9237 18.0236 24.9237C18.6836 24.9237 19.1576 24.7677 19.4456 24.4557C19.7336 24.1317 19.8776 23.6217 19.8776 22.9257V14.6997C19.8776 14.3397 20.1956 14.1597 20.8316 14.1597H21.2996C21.9356 14.1597 22.2536 14.3397 22.2536 14.6997V23.1597C22.2536 23.9157 22.1216 24.5817 21.8576 25.1577C21.6056 25.7217 21.1976 26.1597 20.6336 26.4717C20.0816 26.7837 19.3496 26.9397 18.4376 26.9397Z" fill="white"/>
</svg>
