<svg width="11" height="7" viewBox="0 0 11 7" fill="none" xmlns="http://www.w3.org/2000/svg">
<path d="M10.3439 4.53591e-07L0.54362 3.53937e-08C0.444397 0.00026706 0.347138 0.0237651 0.262311 0.0679646C0.177484 0.112164 0.108302 0.17539 0.0622113 0.250838C0.0161212 0.326287 -0.0051334 0.411101 0.000738355 0.496151C0.00660916 0.581199 0.0393822 0.663263 0.0955297 0.733508L4.99567 6.81101C5.19875 7.063 5.68768 7.063 5.89131 6.81101L10.7914 0.733509C10.8482 0.66341 10.8814 0.581305 10.8876 0.496114C10.8938 0.410923 10.8727 0.325905 10.8266 0.250297C10.7804 0.174688 10.711 0.111381 10.626 0.0672531C10.5409 0.0231256 10.4433 -0.00013401 10.3439 4.53591e-07Z" fill="#929292"/>
</svg>
